<?xml version="1.0" encoding="UTF-8"?>
<svg width="453px" height="138px" viewBox="0 0 453 138" version="1.1" xmlns="http://www.w3.org/2000/svg" xmlns:xlink="http://www.w3.org/1999/xlink">
    <!-- Generator: Sketch 58 (84663) - https://sketch.com -->
    <title>Group</title>
    <desc>Created with Sketch.</desc>
    <g id="Page-1" stroke="none" stroke-width="1" fill="none" fill-rule="evenodd">
        <g id="Group" transform="translate(-1.000000, -34.000000)" fill="#FFFFFF" fill-rule="nonzero">
            <path d="M3.23031363,120.395565 C3.20247976,120.425188 3.16970862,120.44 3.132,120.44 L3.78,118.388 C4.42800324,116.227989 5.00399748,113.672015 5.508,110.72 L5.88618816,108.760298 C6.82418316,103.790048 7.70611352,98.2873243 8.532,92.252 L11.124,73.352 C11.916004,66.5839662 12.7799953,60.0680313 13.716,53.804 L13.8769535,52.6701453 C14.3380735,49.5304582 14.8424183,47.0104306 15.39,45.11 C16.0020031,42.9859894 17.1359917,40.9520097 18.792,39.008 C19.584004,38.0719953 20.5019948,37.3160029 21.546,36.74 C22.5900052,36.1639971 23.5799953,35.876 24.516,35.876 C26.1000079,35.876 27.287996,36.5959928 28.08,38.036 C28.6560029,39.1160054 29.0159993,40.8799878 29.16,43.328 L29.484,45.92 C29.9421841,48.3418303 30.519369,50.9718899 31.2155694,53.8102447 L31.428,54.668 C33.3720097,62.4440389 35.1359921,68.4199791 36.72,72.596 L37.4220008,70.5169974 C37.6020004,69.9949987 37.7279996,69.6440009 37.8,69.464 C39.8160101,63.5599705 41.6339919,58.6640194 43.254,54.776 C44.8740081,50.8879806 46.8359885,47.2880166 49.14,43.976 C50.2200054,42.4639924 51.4439932,41.1500056 52.812,40.034 C54.1800068,38.9179944 55.5479932,38.36 56.916,38.36 C58.4280076,38.36 59.5259966,38.8819948 60.21,39.926 C60.8940034,40.9700052 61.3259991,42.0139948 61.506,43.058 L61.570277,43.4556204 C61.7220005,44.4514133 61.88593,45.9232918 62.062069,47.8712853 L62.1,48.296 C62.3688013,51.3200151 62.5121602,54.7830235 62.53008,58.6851165 L62.53008,60.1688023 C62.5121602,63.2600095 62.3688013,67.7623704 62.1,73.676 L62.0607272,74.4150429 C62.0214544,75.1862164 61.9821819,76.0537824 61.9429092,77.0177489 L61.884,78.536 C61.8119996,80.4800097 61.776,82.747987 61.776,85.34 L61.668,92.684 L61.674,93.9650025 C61.6939998,96.2550018 61.7639994,99.3199808 61.884,103.16 L61.776,106.616 C61.776,109.928017 62.279995,112.015996 63.288,112.88 C64.1520043,113.528003 64.584,114.571993 64.584,116.012 C64.584,117.452007 64.1160047,119.017992 63.18,120.71 C62.2439953,122.402008 61.0560072,123.805994 59.616,124.922 C58.1759928,126.038006 56.7720068,126.596 55.404,126.596 C52.3799849,126.596 50.4360043,123.824028 49.572,118.28 C49.3101805,116.447264 49.1673717,114.40629 49.1435702,112.157027 L49.14,111.476 C49.14,110.179994 49.2119993,108.164014 49.356,105.428 L49.464,99.38 L49.47,97.6639967 C49.4899998,94.5839978 49.5599994,90.4040264 49.68,85.124 C49.8960011,78.715968 50.004,72.3440317 50.004,66.008 C48.3164916,70.5305226 46.2176828,76.6349971 43.7075178,84.3215871 L43.2,85.88 C42.407996,88.3280122 41.616004,90.3439921 40.824,91.928 C40.031996,93.5120079 38.8800076,94.9159939 37.368,96.14 C35.9279928,97.3640061 34.4880072,97.976 33.048,97.976 C30.3119863,97.976 28.044009,96.1400184 26.244,92.468 C24.443991,88.7959816 22.8960065,84.656023 21.6,80.048 L20.628,88.04 L20.1351797,91.7593991 C19.392725,97.2512424 18.7110031,101.771411 18.09,105.32 C17.3339962,109.640022 16.2360072,113.959978 14.796,118.28 C13.7159946,121.520016 12.474007,124.273989 11.07,126.542 C9.66599298,128.810011 7.84801116,129.944 5.616,129.944 C3.0959874,129.944 1.836,128.648013 1.836,126.056 C1.836,124.497401 2.24086361,122.749886 3.05060135,120.813415 L3.23031363,120.395565 L3.23031363,120.395565 Z M87.832,115.364 C88.4800032,115.796002 88.9839982,116.371996 89.344,117.092 C89.7040018,117.812004 89.884,118.567996 89.884,119.36 C89.884,120.008003 89.7760011,120.655997 89.56,121.304 C88.9119968,122.960008 87.292013,124.507993 84.7,125.948 C82.1799874,127.316007 79.624013,128 77.032,128 C75.0159899,128 73.4320058,127.568004 72.28,126.704 C71.3439953,126.055997 70.876,124.976008 70.876,123.464 C70.876,122.455995 71.1639971,121.556004 71.74,120.764 C73.0360065,118.67599 75.2319845,117.164005 78.328,116.228 L79.084,115.904 C80.884009,115.111996 82.5039928,114.68 83.944,114.608 L84.808,114.608 C86.1040065,114.608 87.1119964,114.859997 87.832,115.364 Z M152.228,83.828 C152.948004,82.0999914 153.308,80.4800076 153.308,78.968 C153.308,74.2879766 149.744036,71.948 142.616,71.948 C139.303983,71.948 135.722019,72.4339951 131.87,73.406 C128.220719,74.3268467 125.298462,75.3284551 123.103154,76.4108524 L122.744,76.592 C118.855981,78.5360097 115.994009,80.4259908 114.158,82.262 C112.321991,84.0980092 111.368,86.6719834 111.296,89.984 L111.251156,92.5933848 C111.170934,96.5608628 111.041883,100.101043 110.864,103.214 C110.647999,106.994019 110.252003,110.719982 109.676,114.392 C118.388044,111.151984 126.451963,107.048025 133.868,102.08 L135.12399,101.240904 C139.445636,98.3255085 142.986943,95.6352297 145.748,93.17 C148.772015,90.4699865 150.931994,87.3560176 152.228,83.828 Z M112.592,60.392 L112.58901,60.8015789 C112.574062,61.8965276 112.503059,63.5239892 112.376,65.684 L112.304595,66.4408948 C112.208198,67.533392 112.16,68.4330874 112.16,69.14 L117.830227,61.7488011 C119.924628,59.0000764 121.56254,56.8018264 122.744,55.154 C124.112007,53.2459905 125.371994,51.1760112 126.524,48.944 C124.003987,49.5200029 121.77201,50.1499966 119.828,50.834 C117.88399,51.5180034 116.120008,52.3999946 114.536,53.48 C113.671996,54.1280032 113.078002,54.6679978 112.754,55.1 C112.429998,55.5320022 112.268,55.9999975 112.268,56.504 C112.268,56.9360022 112.321999,57.5119964 112.43,58.232 C112.538001,58.9520036 112.592,59.6719964 112.592,60.392 Z M153.013332,57.385333 L153.524,57.476 C157.412019,58.1240032 160.273991,59.6359881 162.11,62.012 C163.946009,64.3880119 164.864,67.3399824 164.864,70.868 C164.864,73.460013 164.324005,76.4839827 163.244,79.94 C160.435986,88.7960443 154.02805,97.6159561 144.02,106.4 C136.171961,113.096033 127.460048,118.891976 117.884,123.788 C114.787985,125.444008 111.26002,127.099992 107.3,128.756 C103.33998,130.412008 99.956014,131.24 97.148,131.24 C94.9879892,131.24 93.5480036,130.592006 92.828,129.296 C92.5399986,128.791997 92.396,128.216003 92.396,127.568 C92.396,126.703996 92.6119978,125.894004 93.044,125.138 L93.2612785,124.767348 C93.6924264,124.047987 94.303996,123.109544 95.096,121.952 L95.5068816,121.395198 C96.3513637,120.230395 96.8983988,119.336003 97.148,118.712 C97.7960032,116.839991 98.12,114.248017 98.12,110.936 L98.12,108.344 L98.114,107.732 C98.1100001,107.516 98.1040001,107.288001 98.0960001,107.048001 L98.066,106.292 C98.0359998,105.631997 98.0434997,104.922002 98.0884999,104.162001 L98.636001,96.571987 C98.9400008,92.2519914 99.1639993,88.796013 99.308,86.204 C99.308,85.195995 99.3439996,84.3140038 99.416,83.558 L99.524,82.4914997 C99.5599999,82.1585005 99.5959998,81.8480014 99.632,81.56 L99.6860001,80.9862492 C99.7400001,80.37875 99.7939997,79.6700041 99.848,78.86 C99.9200004,77.7799946 99.956,76.5200072 99.956,75.08 C99.956,73.5679924 99.8480011,72.1280068 99.632,70.76 C99.3439986,68.8879906 98.9120029,67.4840047 98.336,66.548 C98.2699997,66.349999 97.9771275,65.9856274 97.4573756,65.4548756 L97.31,65.306 C96.6979969,64.6939969 96.3560004,64.2440014 96.284,63.956 C96.2119996,63.6679986 96.176,63.2720025 96.176,62.768 C96.176,60.3919881 97.5439863,57.0440216 100.28,52.724 C101.072004,51.4999939 101.863996,50.4560043 102.656,49.592 C103.448004,48.7279957 104.311995,48.1160018 105.248,47.756 C105.536001,47.6119993 106.003997,47.54 106.652,47.54 L107.57,47.54 C107.966002,47.54 108.271999,47.5040004 108.488,47.432 C109.280004,47.1439986 110.089996,46.604004 110.918,45.812 L112.376,44.408 L112.376,44.408 C113.054861,43.7291395 113.707264,43.1560825 114.333224,42.6888169 L114.644,42.464 C116.948012,40.8079917 119.971981,39.08 123.716,37.28 C127.460019,35.479991 130.663987,34.58 133.328,34.58 C135.920013,34.58 137.575996,35.6239896 138.296,37.712 C138.584001,38.504004 138.728,39.3679953 138.728,40.304 C138.728,43.0400137 137.792009,46.009984 135.92,49.214 C134.047991,52.418016 131.600015,55.9999802 128.576,59.96 L128.258612,60.4261638 C127.822204,61.0565303 127.208004,61.9091375 126.416,62.984 C134.192039,59.0239802 141.535965,57.044 148.448,57.044 C150.112008,57.044 151.633774,57.1577766 153.013332,57.385333 L153.013332,57.385333 Z M183.684,91.388 L182.82,93.548 L190.38,99.92 L188.861718,93.6362588 C188.308856,91.3075348 187.554952,88.074126 186.6,83.936 L183.684,91.388 Z M195.996,59.852 C197.004005,66.1160313 198.281992,72.4699678 199.83,78.914 L200.241586,80.6166905 C201.359834,85.2149016 202.643576,90.2747417 204.092832,95.7962856 L207.802144,109.877769 C208.6352,113.070531 209.235816,115.403265 209.604,116.876 C209.676,117.092001 209.712,117.415998 209.712,117.848 C209.712,119.576009 208.74001,121.069994 206.796,122.33 C204.85199,123.590006 202.83601,124.22 200.748,124.22 C199.019991,124.22 197.688005,123.752005 196.752,122.816 C194.66399,120.583989 192.468012,118.46001 190.164,116.444 L189.451198,115.825158 C187.247994,113.926514 184.461617,111.648813 181.092,108.992 L177.528,106.076 L176.426058,108.426696 C173.929678,113.726584 171.957007,117.730986 170.508,120.44 C170.003997,121.520005 168.690011,122.509996 166.566,123.41 C164.441989,124.310004 162.480009,124.76 160.68,124.76 C158.66399,124.76 157.656,124.112006 157.656,122.816 C157.656,122.507427 157.735346,122.145961 157.89404,121.731593 L158.929962,119.188075 C160.878372,114.427254 163.117702,109.084601 165.648,103.16 L167.916,97.652 L165.216,94.952 C164.711997,94.4479975 164.46,93.8720032 164.46,93.224 C164.46,91.9999939 165.251992,90.8300056 166.836,89.714 C168.420008,88.5979944 170.18399,87.8600018 172.128,87.5 C175.584017,79.2199586 178.823985,70.7960428 181.848,62.228 C182.136001,61.219995 183.053992,60.3380038 184.602,59.582 C186.150008,58.8259962 187.787991,58.3400011 189.516,58.124 C190.740006,57.7639982 191.783996,57.584 192.648,57.584 C194.66401,57.584 195.779999,58.3399924 195.996,59.852 Z M235.444,85.772 C238.252014,83.5399888 240.537991,81.5600086 242.302,79.832 C244.066009,78.1039914 245.415995,76.3760086 246.352,74.648 L245.24522,74.3570239 C241.401246,73.3335515 236.010217,71.7745559 229.072,69.68 L228.532,91.604 L230.329124,90.0971804 C231.406244,89.1865246 232.067199,88.6088012 232.312,88.364 L235.444,85.772 Z M252.832,100.892 C253.408003,99.7399942 254.631991,98.7500041 256.504,97.922 C258.376009,97.0939959 260.175991,96.68 261.904,96.68 C264.280012,96.68 265.468,97.4359924 265.468,98.948 C265.468,99.3800022 265.360001,99.8839971 265.144,100.46 C262.191985,107.372035 259.960008,114.067968 258.448,120.548 C258.087998,121.988007 257.044009,123.319994 255.316,124.544 C254.595996,125.480005 253.498007,126.271997 252.022,126.92 C250.545993,127.568003 249.088007,127.892 247.648,127.892 C246.423994,127.892 245.434004,127.640003 244.678,127.136 C243.921996,126.631997 243.508,125.840005 243.436,124.76 C243.147999,120.079977 241.618014,115.796019 238.846,111.908 C236.073986,108.019981 232.528022,105.500006 228.208,104.348 L227.668,120.008 C227.596,121.376007 226.462011,122.635994 224.266,123.788 C222.069989,124.940006 219.96401,125.516 217.948,125.516 C216.867995,125.516 216.004003,125.318002 215.356,124.922 C214.707997,124.525998 214.384,123.896004 214.384,123.032 L214.708,108.128 C213.771995,107.479997 213.304,106.724004 213.304,105.86 C213.304,104.851995 213.843995,103.880005 214.924,102.944 C215.284002,89.8399345 215.715997,76.7720652 216.22,63.74 C216.292,62.2279924 217.31799,60.9140056 219.298,59.798 C221.27801,58.6819944 223.27599,58.124 225.292,58.124 C226.804,58.124 227.883997,58.4839964 228.532,59.204 C236.380039,61.3640108 244.515958,63.739987 252.94,66.332 L253.510037,66.2093013 C254.503554,66.0030996 255.213536,65.9 255.64,65.9 C256.864006,65.9 257.817997,66.1699973 258.502,66.71 C259.186003,67.2500027 259.528,68.0599946 259.528,69.14 C259.528,72.0920148 258.55601,74.8099876 256.612,77.294 C254.66799,79.7780124 251.968017,82.5319849 248.512,85.556 L246.352,87.5 C242.895983,90.8840169 239.548016,93.871987 236.308,96.464 C242.21203,98.1200083 246.963982,101.395976 250.564,106.292 L250.915993,105.433185 C251.312049,104.479332 251.950716,102.96561 252.832,100.892 Z M299.408,59.852 C300.920008,59.7079993 302.089996,59.8879975 302.918,60.392 C303.746004,60.8960025 304.627995,61.8679928 305.564,63.308 C306.140003,64.2440047 306.428,65.0359968 306.428,65.684 C306.428,67.2680079 305.42001,68.2039986 303.404,68.492 L299.624,68.924 L295.153402,69.5470518 C294.48038,69.6356841 294.098581,69.68 294.008,69.68 L293.515898,74.3606149 C292.520653,83.9320945 291.712693,92.3798254 291.092,99.704 C290.371996,108.200042 289.904001,116.587959 289.688,124.868 C289.616,125.876005 289.202004,126.631997 288.446,127.136 C287.689996,127.640003 286.700006,127.892 285.476,127.892 C283.315989,127.892 281.174011,127.298006 279.05,126.11 C276.925989,124.921994 275.9,123.572008 275.972,122.06 C276.166401,115.191166 276.535758,108.191205 277.080079,101.059949 L277.268,98.678 C277.916003,90.7219602 278.779995,81.4880526 279.86,70.976 L273.056,71.84 C272.047995,71.9120004 271.274003,71.8580009 270.734,71.678 C270.193997,71.4979991 269.672003,71.0840032 269.168,70.436 C268.663997,69.7879968 268.160003,69.068004 267.656,68.276 C267.079997,67.483996 266.792,66.692004 266.792,65.9 C266.792,65.2519968 267.043997,64.6760025 267.548,64.172 C268.052003,63.6679975 268.807995,63.3440007 269.816,63.2 L280.832,61.688 L282.776,43.004 C282.992001,40.9879899 284.467986,39.98 287.204,39.98 C289.364011,39.98 291.46999,40.5739941 293.522,41.762 C295.57401,42.9500059 296.528001,44.2999924 296.384,45.812 L294.98,60.284 L296.124803,60.1975998 C297.564805,60.0823998 298.659196,59.9672006 299.408,59.852 Z M333.348,101.108 C335.004008,97.2199806 335.832,93.2240205 335.832,89.12 C335.832,85.8799838 335.274006,82.9100135 334.158,80.21 C333.041994,77.5099865 331.296012,75.2960086 328.92,73.568 C327.335992,72.4159942 325.824007,71.84 324.384,71.84 C323.807997,71.84 323.088004,71.9839986 322.224,72.272 C322.872003,72.5600014 323.196,73.0639964 323.196,73.784 C323.196,74.2160022 323.052001,74.7199971 322.764,75.296 C321.107992,78.4640158 319.812005,81.9019815 318.876,85.61 C317.939995,89.3180185 317.472,93.0439813 317.472,96.788 C317.472,101.108022 318.119994,105.211981 319.416,109.1 C320.280004,111.260011 321.179995,112.951994 322.116,114.176 C322.548002,114.680003 322.979998,115.039999 323.412,115.256 C325.50001,113.815993 327.389992,111.800013 329.082,109.208 C330.774008,106.615987 332.195994,103.916014 333.348,101.108 Z M331.836,63.2 C335.364018,63.9200036 338.387987,65.4679881 340.908,67.844 C343.428013,70.2200119 345.335994,73.0819833 346.632,76.43 C347.928006,79.7780167 348.576,83.251982 348.576,86.852 C348.576,91.1000212 347.748008,95.4559777 346.092,99.92 C344.435992,104.384022 342.168014,108.487981 339.288,112.232 C336.407986,115.976019 333.204018,118.927989 329.676,121.088 C326.363983,123.10401 323.124016,124.112 319.956,124.112 C316.787984,124.112 314.016012,123.14001 311.64,121.196 C309.263988,119.25199 307.536005,116.444018 306.456,112.772 C305.231994,109.027981 304.62,104.816023 304.62,100.136 C304.62,97.327986 304.835998,94.5920133 305.268,91.928 C304.763997,92.0720007 304.008005,92.144 303,92.144 C300.551988,92.144 299.328,91.3160083 299.328,89.66 C299.328,89.1662832 299.380897,88.751919 299.486694,88.4168984 L299.544,88.256 C301.992012,81.4159658 305.681975,75.4580254 310.614,70.382 C315.546025,65.3059746 321.215968,62.768 327.624,62.768 C328.560005,62.768 329.963991,62.9119986 331.836,63.2 Z M394.095376,62.3737598 L394.072,62.552 C392.343991,75.6560655 391.48,88.003942 391.48,99.596 C391.48,105.212028 391.695998,110.899971 392.128,116.66 C392.272001,117.092002 392.344,117.451999 392.344,117.74 C392.344,117.956001 392.272001,118.279998 392.128,118.712 C392.128,118.784 392.11,118.82 392.074,118.82 L392.02,118.82 L392.02,119.036 C391.587998,120.260006 390.580008,121.321995 388.996,122.222 C387.411992,123.122005 385.720009,123.643999 383.92,123.788 C381.039986,124.076001 379.312003,123.320009 378.736,121.52 L378.212318,120.131835 C375.676632,113.492458 371.855226,104.595256 366.748,93.44 L365.452,90.416 C364.875997,99.416045 364.516001,109.027949 364.372,119.252 C364.372,120.764008 363.36401,122.113994 361.348,123.302 C359.33199,124.490006 357.28001,125.084 355.192,125.084 C353.895994,125.084 352.852004,124.832003 352.06,124.328 C351.267996,123.823997 350.908,122.996006 350.98,121.844 C351.412002,102.259902 352.815988,83.7200875 355.192,66.224 L355.3,65.792 C355.155999,64.2079921 356.12799,62.7680065 358.216,61.472 C360.30401,60.1759935 362.39199,59.528 364.48,59.528 C366.640011,59.528 367.971997,60.2479928 368.476,61.688 L368.881905,62.7794655 C371.174509,68.8795001 374.459179,76.5796106 378.736,85.88 C379.168002,79.1119662 379.923995,72.2360349 381.004,65.252 C381.220001,63.8119928 382.37199,62.5340056 384.46,61.418 C386.54801,60.3019944 388.59999,59.744 390.616,59.744 C393.1244,59.744 394.284181,60.6205781 394.095376,62.3737598 Z" id="M.Barton"></path>
            <path d="M138.073242,171.342773 L136.021484,171.342773 L142.176758,154.359375 L144.228516,154.359375 L138.073242,171.342773 Z M175.757812,167.969727 C175.192054,168.70736 174.407883,169.265949 173.405273,169.645508 C172.402664,170.025067 171.264004,170.214844 169.989258,170.214844 C168.678704,170.214844 167.51856,169.917646 166.508789,169.323242 C165.499018,168.728838 164.720218,167.878424 164.172363,166.771973 C163.624509,165.665522 163.339844,164.374682 163.318359,162.899414 L163.318359,161.674805 C163.318359,159.311512 163.884109,157.465664 165.015625,156.137207 C166.147141,154.80875 167.726227,154.144531 169.75293,154.144531 C171.493173,154.144531 172.87532,154.574214 173.899414,155.433594 C174.923508,156.292973 175.539387,157.531893 175.74707,159.150391 L173.083008,159.150391 C172.782225,157.266918 171.690114,156.325195 169.806641,156.325195 C168.589187,156.325195 167.663577,156.76383 167.029785,157.641113 C166.395993,158.518396 166.068359,159.805656 166.046875,161.50293 L166.046875,162.706055 C166.046875,164.396167 166.403154,165.708491 167.115723,166.643066 C167.828291,167.577641 168.818359,168.044922 170.085938,168.044922 C171.475267,168.044922 172.463539,167.729821 173.050781,167.099609 L173.050781,164.038086 L169.828125,164.038086 L169.828125,161.975586 L175.757812,161.975586 L175.757812,167.969727 Z M190.491211,163.973633 L187.461914,163.973633 L187.461914,170 L184.744141,170 L184.744141,154.359375 L190.244141,154.359375 C192.048837,154.359375 193.441727,154.763993 194.422852,155.573242 C195.403976,156.382491 195.894531,157.553378 195.894531,159.085938 C195.894531,160.131516 195.642092,161.006995 195.137207,161.712402 C194.632322,162.41781 193.928715,162.960285 193.026367,163.339844 L196.539062,169.860352 L196.539062,170 L193.62793,170 L190.491211,163.973633 Z M187.461914,161.792969 L190.254883,161.792969 C191.171554,161.792969 191.887693,161.562014 192.40332,161.100098 C192.918948,160.638181 193.176758,160.006189 193.176758,159.204102 C193.176758,158.366207 192.938642,157.718101 192.462402,157.259766 C191.986163,156.80143 191.275395,156.565104 190.330078,156.550781 L187.461914,156.550781 L187.461914,161.792969 Z M213.227539,166.358398 L207.168945,166.358398 L205.901367,170 L203.076172,170 L208.984375,154.359375 L211.422852,154.359375 L217.341797,170 L214.505859,170 L213.227539,166.358398 Z M207.931641,164.166992 L212.464844,164.166992 L210.198242,157.678711 L207.931641,164.166992 Z M227.832031,164.188477 L227.832031,170 L225.114258,170 L225.114258,154.359375 L231.097656,154.359375 C232.845061,154.359375 234.232579,154.814123 235.260254,155.723633 C236.287928,156.633143 236.801758,157.836256 236.801758,159.333008 C236.801758,160.865568 236.29867,162.057938 235.29248,162.910156 C234.286291,163.762374 232.877288,164.188477 231.06543,164.188477 L227.832031,164.188477 Z M227.832031,162.007812 L231.097656,162.007812 C232.064458,162.007812 232.802081,161.780438 233.310547,161.325684 C233.819013,160.870929 234.073242,160.213871 234.073242,159.354492 C234.073242,158.509436 233.815432,157.834475 233.299805,157.32959 C232.784177,156.824705 232.0752,156.565104 231.172852,156.550781 L227.832031,156.550781 L227.832031,162.007812 Z M257.59375,170 L254.886719,170 L254.886719,163.049805 L247.893555,163.049805 L247.893555,170 L245.175781,170 L245.175781,154.359375 L247.893555,154.359375 L247.893555,160.869141 L254.886719,160.869141 L254.886719,154.359375 L257.59375,154.359375 L257.59375,170 Z M269.673828,170 L266.966797,170 L266.966797,154.359375 L269.673828,154.359375 L269.673828,170 Z M290.949219,164.908203 C290.791666,166.576831 290.175787,167.878413 289.101562,168.812988 C288.027338,169.747563 286.598642,170.214844 284.81543,170.214844 C283.56933,170.214844 282.471847,169.919437 281.522949,169.328613 C280.574051,168.73779 279.841799,167.898117 279.326172,166.80957 C278.810544,165.721023 278.541992,164.457038 278.520508,163.017578 L278.520508,161.556641 C278.520508,160.081373 278.781898,158.781581 279.304688,157.657227 C279.827477,156.532872 280.577632,155.666344 281.555176,155.057617 C282.53272,154.44889 283.662428,154.144531 284.944336,154.144531 C286.670256,154.144531 288.059565,154.613602 289.112305,155.551758 C290.165044,156.489914 290.777343,157.81477 290.949219,159.526367 L288.242188,159.526367 C288.113281,158.402013 287.785647,157.590986 287.259277,157.093262 C286.732908,156.595538 285.961268,156.34668 284.944336,156.34668 C283.762689,156.34668 282.854984,156.778153 282.221191,157.641113 C281.587399,158.504073 281.263346,159.769848 281.249023,161.438477 L281.249023,162.824219 C281.249023,164.514331 281.551592,165.803381 282.156738,166.691406 C282.761885,167.579432 283.648106,168.023438 284.81543,168.023438 C285.882492,168.023438 286.684568,167.783531 287.22168,167.303711 C287.758792,166.823891 288.098958,166.025396 288.242188,164.908203 L290.949219,164.908203 Z M310.855469,170 L310.855469,154.359375 L315.474609,154.359375 C316.856778,154.359375 318.083165,154.667315 319.153809,155.283203 C320.224452,155.899092 321.053382,156.772781 321.640625,157.904297 C322.227868,159.035813 322.521484,160.332024 322.521484,161.792969 L322.521484,162.577148 C322.521484,164.059578 322.226077,165.36295 321.635254,166.487305 C321.044431,167.611659 320.202968,168.478187 319.11084,169.086914 C318.018712,169.695641 316.76726,170 315.356445,170 L310.855469,170 Z M313.573242,156.550781 L313.573242,167.830078 L315.345703,167.830078 C316.77084,167.830078 317.864742,167.384282 318.627441,166.492676 C319.390141,165.60107 319.778646,164.320972 319.792969,162.652344 L319.792969,161.782227 C319.792969,160.084952 319.424157,158.788741 318.686523,157.893555 C317.94889,156.998368 316.878262,156.550781 315.474609,156.550781 L313.573242,156.550781 Z M340.370117,163.017578 L333.946289,163.017578 L333.946289,167.830078 L341.455078,167.830078 L341.455078,170 L331.228516,170 L331.228516,154.359375 L341.379883,154.359375 L341.379883,156.550781 L333.946289,156.550781 L333.946289,160.869141 L340.370117,160.869141 L340.370117,163.017578 Z M357.842773,165.97168 C357.842773,165.284176 357.601077,164.754234 357.117676,164.381836 C356.67146,164.038084 355.894216,163.691286 354.785923,163.341433 L354.501953,163.253906 C353.24153,162.874347 352.238936,162.451825 351.494141,161.986328 C350.069003,161.091141 349.356445,159.923835 349.356445,158.484375 C349.356445,157.223952 349.870275,156.185551 350.897949,155.369141 C351.925624,154.55273 353.259432,154.144531 354.899414,154.144531 C355.987961,154.144531 356.958329,154.34505 357.810547,154.746094 C358.662765,155.147137 359.332354,155.718258 359.819336,156.459473 C360.306318,157.200687 360.549805,158.022456 360.549805,158.924805 L357.842773,158.924805 C357.842773,158.108394 357.586754,157.469241 357.074707,157.007324 C356.56266,156.545408 355.830408,156.314453 354.87793,156.314453 C353.989904,156.314453 353.300621,156.50423 352.810059,156.883789 C352.319496,157.263348 352.074219,157.793291 352.074219,158.473633 C352.074219,159.046552 352.33919,159.524575 352.869141,159.907715 C353.354929,160.258926 354.129553,160.601107 355.193033,160.934265 L355.490234,161.024902 C356.707688,161.386558 357.685218,161.798338 358.422852,162.260254 C359.160485,162.72217 359.70117,163.252113 360.044922,163.850098 C360.388674,164.448082 360.560547,165.148108 360.560547,165.950195 C360.560547,167.253587 360.06104,168.290198 359.062012,169.060059 C358.062983,169.829919 356.707691,170.214844 354.996094,170.214844 C353.864578,170.214844 352.824386,170.005373 351.875488,169.586426 C350.92659,169.167478 350.188967,168.589196 349.662598,167.851562 C349.136228,167.113929 348.873047,166.254562 348.873047,165.273438 L351.59082,165.273438 C351.59082,166.161463 351.884437,166.848956 352.47168,167.335938 C353.058922,167.822919 353.900385,168.066406 354.996094,168.066406 C355.941411,168.066406 356.652179,167.874839 357.128418,167.491699 C357.604657,167.108559 357.842773,166.601891 357.842773,165.97168 Z M371.813477,170 L369.106445,170 L369.106445,154.359375 L371.813477,154.359375 L371.813477,170 Z M393.142578,167.969727 C392.57682,168.70736 391.792648,169.265949 390.790039,169.645508 C389.78743,170.025067 388.648769,170.214844 387.374023,170.214844 C386.06347,170.214844 384.903325,169.917646 383.893555,169.323242 C382.883784,168.728838 382.104983,167.878424 381.557129,166.771973 C381.009275,165.665522 380.724609,164.374682 380.703125,162.899414 L380.703125,161.674805 C380.703125,159.311512 381.268875,157.465664 382.400391,156.137207 C383.531907,154.80875 385.110992,154.144531 387.137695,154.144531 C388.877938,154.144531 390.260086,154.574214 391.28418,155.433594 C392.308273,156.292973 392.924153,157.531893 393.131836,159.150391 L390.467773,159.150391 C390.166991,157.266918 389.074879,156.325195 387.191406,156.325195 C385.973952,156.325195 385.048343,156.76383 384.414551,157.641113 C383.780759,158.518396 383.453125,159.805656 383.431641,161.50293 L383.431641,162.706055 C383.431641,164.396167 383.78792,165.708491 384.500488,166.643066 C385.213057,167.577641 386.203125,168.044922 387.470703,168.044922 C388.860033,168.044922 389.848304,167.729821 390.435547,167.099609 L390.435547,164.038086 L387.212891,164.038086 L387.212891,161.975586 L393.142578,161.975586 L393.142578,167.969727 Z M414.536133,170 L411.818359,170 L404.84668,158.90332 L404.84668,170 L402.128906,170 L402.128906,154.359375 L404.84668,154.359375 L411.839844,165.499023 L411.839844,154.359375 L414.536133,154.359375 L414.536133,170 Z M432.889648,163.017578 L426.46582,163.017578 L426.46582,167.830078 L433.974609,167.830078 L433.974609,170 L423.748047,170 L423.748047,154.359375 L433.899414,154.359375 L433.899414,156.550781 L426.46582,156.550781 L426.46582,160.869141 L432.889648,160.869141 L432.889648,163.017578 Z M447.93457,163.973633 L444.905273,163.973633 L444.905273,170 L442.1875,170 L442.1875,154.359375 L447.6875,154.359375 C449.492197,154.359375 450.885086,154.763993 451.866211,155.573242 C452.847336,156.382491 453.337891,157.553378 453.337891,159.085938 C453.337891,160.131516 453.085452,161.006995 452.580566,161.712402 C452.075681,162.41781 451.372075,162.960285 450.469727,163.339844 L453.982422,169.860352 L453.982422,170 L451.071289,170 L447.93457,163.973633 Z M444.905273,161.792969 L444.905273,156.550781 L447.773438,156.550781 C448.718755,156.565104 449.429522,156.80143 449.905762,157.259766 C450.382001,157.718101 450.620117,158.366207 450.620117,159.204102 C450.620117,160.006189 450.362307,160.638181 449.84668,161.100098 C449.331052,161.562014 448.614913,161.792969 447.698242,161.792969 L444.905273,161.792969 Z" id="/GRAPHICDESIGNER"></path>
        </g>
    </g>
</svg>